<svg width="32" height="32" viewBox="0 0 32 32" fill="none" xmlns="http://www.w3.org/2000/svg">
  <!-- 背景圆形 -->
  <circle cx="16" cy="16" r="16" fill="url(#iconGradient)"/>

  <!-- 问号图标 -->
  <path d="M16 8C13.2 8 11 10.2 11 13H13.5C13.5 11.6 14.6 10.5 16 10.5C17.4 10.5 18.5 11.6 18.5 13C18.5 14.4 16.75 14.65 15.5 16.1C15.2 16.5 15 17 15 17.5V18.5H17.5V17.5C17.5 17.25 17.6 17 17.85 16.7C19.4 14.9 21 14.5 21 13C21 10.2 18.8 8 16 8Z" fill="white"/>
  <circle cx="16" cy="22" r="1.5" fill="white"/>

  <!-- 渐变定义 -->
  <defs>
    <linearGradient id="iconGradient" x1="0%" y1="0%" x2="100%" y2="100%">
      <stop offset="0%" style="stop-color:#667eea;stop-opacity:1" />
      <stop offset="100%" style="stop-color:#764ba2;stop-opacity:1" />
    </linearGradient>
  </defs>
</svg>
